<svg width="712" height="682" viewBox="0 0 712 682" fill="none" xmlns="http://www.w3.org/2000/svg">
<path d="M550.148 20.2866C529.899 -21.8843 547.67 -72.4858 589.841 -92.735C632.012 -112.984 682.613 -95.2133 702.862 -53.0425C723.112 -10.8716 705.341 39.7299 663.17 59.9791C620.999 80.2284 570.398 62.4574 550.148 20.2866Z" fill="#957163" fill-opacity="0.12"/>
<path d="M348.316 333.536C309.446 252.585 343.559 155.451 424.51 116.581C505.461 77.7103 602.595 111.823 641.465 192.774C680.335 273.725 646.222 370.859 565.272 409.729C484.321 448.599 387.187 414.486 348.316 333.536Z" fill="#957163" fill-opacity="0.1"/>
<path d="M-192.97 538.448C-253.186 413.043 -200.34 262.568 -74.9348 202.352C50.4699 142.136 200.945 194.982 261.161 320.387C321.377 445.792 268.531 596.267 143.126 656.483C17.7214 716.699 -132.754 663.853 -192.97 538.448Z" fill="#957163" fill-opacity="0.12"/>
</svg>
